<svg xmlns="http://www.w3.org/2000/svg" viewBox="0 0 64 64" class="fill-current">
   <path
      class="text-primary-content"
      d="M10.438 17.313c-1.876 3-9.423 7.97-7.126 14.25 2.298 6.28 10.192 1.565 13.202 12.202 1.583 5.598-11.519 12.868-6.3 16.29 4.7 3.08 27.59 2.685 31.781 1.272C50.843 58.344 60.613 60.62 58.5 48c-2.113-12.62-12.727-7.758-9.477-19.258s7.684-7.885 5.79-16.119C52.919 4.39 44.554 4.483 38.74 7.688 32.925 10.893 27.182 1.64 20.25 3.25c-6.932 1.611-7.938 11.063-9.813 14.063z" />
   <path
      class="text-primary"
      d="M17.611 1.043a5.388 5.388 0 00-.812.092c-.503.099-.948.264-1.25.635a.873.873 0 00-.174.298.66.66 0 00.078.545.62.62 0 00.375.242c.106.028.194.035.29.038.374.01.846-.06 1.464-.123 1.223-.125 2.983-.229 4.643.34 2.393.82 4.551 3.383 5.13 5.435a.5.5 0 10.961-.272c-1.318-2.856-3.444-5.225-5.859-6.3-1.286-.514-2.704-.842-3.936-.918a8.599 8.599 0 00-.91-.012zm.043 4.893a20.251 20.251 0 00-3.513.228c-.767.121-1.392.26-1.823.447a1.352 1.352 0 00-.304.172.634.634 0 00-.27.432c-.034.236.114.466.235.564.12.098.228.142.353.184.954.317 1.801-.08 2.78-.416.976-.338 2.154-.685 3.92-.56 3.54.25 5.818 2.048 5.818 2.048a.5.5 0 10.619-.781c-2.802-1.62-4.137-2.032-6.696-2.25-.352-.037-.73-.059-1.119-.068zm28.55.58a1.367 1.367 0 00-.436.027c-.235.053-.435.122-.614.28a.86.86 0 00-.27.657c.036.44.27.672.485.95.43.555.896 1.161.881 1.644-.048 1.518.877 2.576 1.246 2.965-.145.223-.583.902-1.344 1.965-.875 1.222-1.973 2.636-2.728 3.312-.92.823-2.057 2.398-3.035 3.842-.49.722-.931 1.408-1.262 1.936-.331.527-.74 1.14-.832 1.322.9.672 1.622 1.102 2.523 1.773 0 0 1.02-1.506 1.842-3.064a23.55 23.55 0 011.32-2.24c.45-.655.914-1.156 1.18-1.309.56-.322 1.005-.908 1.455-1.61.45-.7.88-1.52 1.256-2.31.611-1.28.896-2.052 1.053-2.459a6.98 6.98 0 004.36 1.494c.36 0 .63-.027.888-.148a.805.805 0 00.353-.303.75.75 0 00.094-.482c-.044-.291-.19-.46-.344-.627a4.136 4.136 0 00-.521-.461c.823.075 1.71.156 2.424-.06a.83.83 0 00.386-.215c.134-.133.215-.437.149-.627-.132-.382-.343-.427-.557-.541-.426-.228-1.038-.437-1.699-.641-.466-.144-.554-.15-.988-.266.196-.057.22-.046.416-.111.527-.175 1.01-.355 1.373-.633.18-.139.393-.33.402-.678.01-.347-.247-.6-.488-.736-.513-.288-1.122-.282-1.793-.223-.672.06-1.405.21-2.094.381-1.148.285-1.84.54-2.15.649-.121-.3-.298-.79-.762-1.559-.294-.488-.639-.974-1.053-1.346-.31-.278-.694-.508-1.117-.548zm-23.811 18.55c-.796.009-1.584.06-2.27.182-2.6.46-4.494 1.53-6.502 3.998-.132.033-.83.194-1.697.682-.946.532-2.013 1.434-2.17 2.843-.072.65-.019 1.14.164 1.526.183.386.518.632.83.724.29.087.333.002.541-.033.02.31.027.702.191 1.45.11.496.264 1.013.504 1.464.241.451.592.874 1.133 1.006.168.041.344.067.547-.006a.763.763 0 00.422-.437c.108-.32.046-.521.031-.736-.015-.214-.018-.419.02-.575a.577.577 0 01.258-.384c.363-.26.573-.689.529-1.061-.044-.372-.236-.632-.408-.857-.173-.226-.349-.423-.44-.557-.02-.031-.02-.034-.031-.055.315-.513.873-1.065 1.096-1.285.265.157.677.424 1.404.68.465.163.944.292 1.434.215.244-.04.506-.147.699-.358.192-.21.29-.499.308-.8.017-.275-.006-.52-.117-.747a.98.98 0 00-.543-.478c-.427-.145-.791-.04-1.158.035-.367.074-.733.155-1.03.156-.274.001-.446-.062-.605-.207l-.535-1.295c3.098-2.452 4.99-2.92 8.223-2.685 3.195.232 5.916 2.58 5.916 2.58.207.182 1.803-1.518 1.586-1.688-.953-.876-2.106-1.718-3.055-2.398-.223-.163-.152-.526-.426-.565 0 0-1.095-.158-2.531-.257a29.452 29.452 0 00-2.318-.077zm.95 5.866a.5.5 0 00-.314.136c-1.456 1.385-1.857 3.616-1.92 6.098-.054 2.152.167 4.526.301 6.803-1.072-.66-2.532-1.698-3.094-2.356-.31-.364-.514-.92-.79-1.384-.14-.232-.32-.51-.704-.588-.383-.08-.72.132-.992.412-.344.355-.41.861-.322 1.265.067.312.231.572.388.83-.096-.024-.2-.06-.29-.078a1.7 1.7 0 00-.383-.037c-.137.004-.365-.001-.547.272a.59.59 0 00-.084.435.76.76 0 00.088.237c.067.125.147.227.24.337.15.178.345.367.539.553-.01.002-.018 0-.027 0a1.02 1.02 0 00-.383.135.749.749 0 00-.332.443c-.078.332.084.52.197.653.114.133.247.243.404.359a8.61 8.61 0 001.186.705c.92.468 2.006.903 2.85 1.024.522.074 1.29.582 2.046 1.074.378.245.757.483 1.159.638.4.156.862.233 1.302.05.36-.153.663-.413.766-.768.102-.355.004-.687-.137-.979-.28-.583-.79-1.153-1.302-1.814-.143-.183-.258-.617-.252-1.192.005-.574.113-1.272.277-1.968.329-1.392.919-2.822 1.21-3.27.282-.429.376-.965.446-1.578.07-.614.087-1.295.082-1.94-.003-.392-.02-.403-.035-.74.713.988 1.477 2.056 1.922 2.633.38.493 1.193 1.301 1.941 2.031.75.73 1.414 1.354 1.414 1.354.202.189 1.846-3.038 1.723-3.285-.543-1.09-1.96-2.652-3.598-4.026-.819-.687-1.688-1.313-2.533-1.767-.845-.455-1.664-.754-2.441-.707z" />
   <g class="text-primary-focus">
      <path
         d="M31.973 35.477s-.444.81-.914 1.867c-.47 1.057-.976 2.347-1.1 3.435-.121 1.067-.071 3.162.389 5.29 1.21 5.532 7.976 9.889 10.444 11.803 2.468 1.915 7.115-8.235 7.145-11.85-.04-3.14-1.597-8.815-8.181-12.036-.336-.076-7.783 1.49-7.783 1.49z" />
      <path
         class="filter saturate-50"
         d="M33.12 24.671c-1.05.437-2.303 1.835-3.134 2.852-.78.957-1.245 2.186-1.076 3.518a.5.5 0 00-.023.15l.013-.002c.006.034-.012.062-.006.096.01.046.026.09.047.131.283 1.312.942 2.467 1.676 3.338.76.902 1.526 1.518 2.223 1.717.683.195 1.85.176 3.203-.053 1.353-.23 2.826-.687 3.832-1.613 1.858-1.713 2.643-3.816 2.295-5.674-.158-.841-.342-1.698-.875-2.422-.533-.724-1.856-1.591-3.663-2.033-1.808-.441-2.838-.75-4.512-.005z" />
      <path
         d="M17.59 13.544c-1.353.984-2.06 1.746-2.842 3.139-.391.696-.593 1.454-.697 2.07-.105.618-.024 1.268.465 1.657.4.32.89.41 1.33.365.44-.045.855-.195 1.281-.351.852-.312 1.743-.655 2.775-.533.915.107 1.973 1.084 3.317 1.94.472.3 1.028.245 1.63.673.603.428 1.106 1.277 1.46 1.928.166.621.336 1.663.681 2.54.173.44.386.85.735 1.157.348.306 1.19.798 2.564-.152.648-.448 1.744-1.89 2.703-2.668 1.074-.872 2.256-1.353 2.668-2.55.535-1.662.683-3.437-.221-5.362-2.012-4.282-5.367-5.492-5.367-5.492s-.051-1.307-.402-2.24c-.35-.934-1.177-1.82-2.55-1.9-1.019-.058-1.316.289-1.316.289s-1-.818-1.7-.845a3.003 3.003 0 00-1.932.607c-.543.408-1.125 1.444-1.37 2.35-.26.964-.166 1.787-.166 1.787s-1.734.646-3.046 1.591z" />
   </g>
   
   <path
      class="text-primary"
      d="M37.96 43.727a2.076 2.076 0 00-1.081.115c-.721.276-1.408.914-1.983 1.931-1.146 2.031-2.025 5.687-2.144 7.452-.052.766-.298 2.53-.272 4.123.014.796.088 1.553.327 2.183.119.315.282.604.529.83.246.226.583.373.943.385 1.187.041 2.202-.573 3.092-1.318.89-.745 1.69-1.647 2.445-2.32.687-.613 2.034-1.269 3.184-1.731.852-.342 1.23-.451 1.559-.557l.513 3.344c-.232.098-.488.192-.941.455-.315.183-.62.383-.858.649-.118.133-.23.288-.275.51a.856.856 0 00.186.683c.285.327.695.386 1.043.37.3-.016.591-.1.87-.188-.086.184-.185.347-.173.619.004.09.02.203.096.324a.649.649 0 00.359.262c.27.07.43-.015.594-.094.56-.271.657-.455 1.002-.758.008.216.016.427.11.656a.71.71 0 00.36.399c.217.1.484.043.639-.049a5.05 5.05 0 001.047-.87c.336-.36.66-.734.687-1.275.012-.226-.035-.341-.088-.527a16.005 16.005 0 00-.205-.65c-.162-.493-.368-1.099-.546-1.717-.18-.619-.33-1.252-.383-1.776-.053-.523.019-.915.111-1.05.535-.788 1.093-1.405 1.402-2.075.155-.334.248-.715.157-1.103s-.353-.725-.729-1.01c-.446-.34-1.012-.367-1.465-.22-.453.146-.842.424-1.205.714-.363.291-.696.601-.978.83-.282.23-.536.344-.535.344-.375.04-.895.209-1.674.467-.78.258-1.75.605-2.754.994a34.16 34.16 0 00-4.053 1.9c.64-1.673 1.147-3.13 1.535-4.128.285-.733.616-2.087.801-3.405.093-.659.147-1.302.127-1.855-.02-.553-.05-1.04-.451-1.414a1.778 1.778 0 00-.924-.45z" />
   <path
      class="text-primary-content"
      d="M27.06 8.764c1.01.058 1.414.557 1.674 1.252.261.694.268 1.575.223 2.09-.04.454-.322 1.685-.855 2.623-.267.468-.595.866-.948 1.097-.353.232-.714.324-1.207.205a1.678 1.678 0 01-1.064-.754c-.249-.374-.406-.87-.487-1.392-.16-1.045.01-2.221.084-2.479.122-.423.29-1.133.67-1.705.381-.572.886-.997 1.91-.937zm-2.742.384c-.513.77-.883 2.288-.94 2.614-.857-.06-1.163-.034-1.986.046 0 0-.057-.595.051-1.149.148-.757.514-1.58.913-1.998 1.378-1.444 2.566-.177 2.566-.177s-.475.472-.604.664z" />
   <path
      class="text-primary"
      d="M23.416 9.691c-.224.029-.454.163-.602.545-.297.764.063 1.504.063 1.504l.502.022c.109-.477.357-1.293.607-1.983-.128-.038-.346-.116-.57-.088zm4.078.62c-.169.013-.358.103-.564.275-.55.459-.615.986-.645 1.398-.035.493.24.967.682 1.094.442.127.944-.168 1.129-.627.157-.39.26-.995.04-1.597-.137-.377-.36-.566-.642-.543z" />
   <path
      class="text-primary"
      d="M31.852 19.621c-.205 1.933-.401 3.671-.444 4.393-.024.418-.34 1.272-.83 1.994-.49.722-1.155 1.318-1.72 1.472-.241.066-.32.031-.471-.101-.15-.133-.325-.412-.467-.774-.284-.722-.454-1.719-.645-2.433-.162-.606-.531-1.087-.873-1.486.667.01 1.32.065 2.096-.25 1.694-.69 2.66-1.761 3.354-2.815z" />
</svg>