<svg xmlns="http://www.w3.org/2000/svg" viewBox="0 0 16.933 16.933">
   <path d="M.017 7.022l4.22-2.358 2.732 4.989-3.523 2.604z" />
   <path style="filter: invert(.4);"
      d="M3.247 6.082l-.033.811-.842-.35-.018.56.839.325-.059 1.371c-.008.276-.114.474-.585.285-.267-.107-.42-.481-.39-.793l-.486-.18c-.025 1.008.482 1.375.84 1.52.412.165.752.095.887-.257.077.476.592.8.984.767.355-.031.594-.37.602-.894l-.423-.15c-.005.214-.078.632-.442.497-.428-.158-.409-.312-.41-.595l.05-1.349.744.288.018-.523-.725-.29.032-.787z" />
   <path style="filter: invert(.2);"
      d="M8.58 5.666c-.2.001-.407.059-.584.13-.197.082-.603.314-.851.499-.128.095-.26.221-.37.348-.108.126-.198.228-.216.373a.132.132 0 10.261.035c0 .002.061-.125.157-.237.095-.11.22-.229.326-.308.219-.164.651-.406.795-.465.154-.063.336-.11.482-.111.147-.001.238.034.29.125.01.02.016.069-.016.152a1.262 1.262 0 01-.182.293c-.166.21-.401.425-.56.535-.065.044-.152.076-.255.133l.452-.717a.133.133 0 10-.225-.142L7.389 7.41c-.222.108-.537.28-.537.28v.001l-.006.002a.132.132 0 00.115.237l.006-.002s.117-.049.133-.057l-.813 1.287a.133.133 0 10.225.143l1.02-1.617c.174-.08.208-.109.435-.19.26-.093.528-.17.742-.195a.883.883 0 01.266.002c.066.013.1.035.12.062.06.08.062.154.018.27a1.403 1.403 0 01-.267.392c-.247.274-.58.532-.746.705-.13.135-.486.402-.815.635-.329.233-.632.438-.701.485a.666.666 0 01-.2.02c-.09-.007-.165-.024-.165-.024a.133.133 0 10-.055.26s.092.02.203.027c.112.007.245.02.367-.065.06-.04.373-.25.705-.486.333-.236.682-.491.852-.668.133-.138.482-.412.752-.71.135-.15.252-.307.316-.475.065-.169.067-.367-.05-.524a.452.452 0 00-.28-.162 1.113 1.113 0 00-.351-.008c-.08.01-.172.05-.258.069.156-.129.32-.264.459-.44.093-.118.173-.24.22-.361.048-.122.068-.259 0-.38-.107-.191-.32-.258-.519-.257zm5.678.627a1.592 1.592 0 00-.309.082 7.126 7.126 0 00-.69.293c-.196.094-.429.18-.618.295a.762.762 0 00-.243.213.437.437 0 00-.068.328.326.326 0 00.127.193.827.827 0 00.2.108c.145.06.317.107.48.162.163.055.315.12.412.197.095.076.136.147.129.268-.037.241-.198.424-.408.566a2.683 2.683 0 01-.645.295c-.182.06-.362.122-.504.146-.142.025-.222.009-.256-.025-.102-.102-.04-.242-.04-.242a.132.132 0 10-.243-.104s-.129.31.096.534c.13.13.313.128.488.097.175-.03.361-.095.541-.154.185-.06.462-.16.711-.328.249-.168.477-.412.525-.754a.132.132 0 000-.008.579.579 0 00-.23-.498 1.613 1.613 0 00-.49-.24c-.173-.059-.345-.107-.467-.156a.626.626 0 01-.137-.073c-.027-.02-.028-.031-.03-.035a.147.147 0 01.026-.129.542.542 0 01.162-.137c.154-.093.385-.179.598-.28.203-.098.454-.213.66-.284.083-.029.148-.041.205-.053-.013.013-.018.022-.033.035-.085.076-.186.141-.186.141a.132.132 0 10.141.223s.113-.071.219-.164a.745.745 0 00.144-.162.29.29 0 00.045-.114.217.217 0 00-.033-.15.218.218 0 00-.142-.084.433.433 0 00-.137-.002zm2.252.125c-.364-.165-.888-.05-1.633.322a.132.132 0 10.117.237c.718-.358 1.185-.42 1.406-.319.111.05.178.132.22.274.04.14.044.34.007.584-.168.688-.523 1.592-1.057 2.302a6.71 6.71 0 01-1.88 1.662c-.446.255-.767.273-.975.239-.208-.035-.295-.115-.295-.115a.132.132 0 10-.174.199s.157.132.426.177c.269.045.66.01 1.148-.27a6.915 6.915 0 001.961-1.733c.565-.752.928-1.683 1.104-2.403a.132.132 0 00.004-.01c.042-.271.041-.507-.016-.705a.673.673 0 00-.363-.441zm-4.098.11a.132.132 0 00-.008.001c-.44.064-2 .422-2 .422a.132.132 0 00-.076.049s-.505.668-.77 1.068c-.01.016-.02.047-.03.065a.132.132 0 00-.003.002.132.132 0 00-.05.103.132.132 0 000 .002c-.116.205-.237.44-.33.678-.06.15-.107.287-.137.396a.95.95 0 00-.031.147.257.257 0 000 .07.143.143 0 00.07.114.323.323 0 00.264.017c.077-.028.151-.07.267-.125.232-.108.623-.267 1.367-.414a.132.132 0 10-.05-.26c-.763.151-1.182.319-1.428.434l-.207.096c0-.004 0-.005.002-.008.026-.095.072-.228.129-.371.094-.24.216-.48.324-.668l1.469-.43a.132.132 0 10-.075-.254l-1.181.346c.247-.352.552-.77.582-.809.072-.016 1.556-.354 1.931-.408a.133.133 0 00-.029-.264z" />
</svg>