<svg xmlns="http://www.w3.org/2000/svg" viewBox="0 0 512 512">
   <path
      d="M337.095 52.966c7.999 94.106-43.99 135.008-91.98 144.234-47.99 9.226-104.285 7.074-190.729-51.358 28.302 33.214 82.752 66.427 121.514 168.836 74.446 7.381 124.588-6.15 175.039-51.357 11.075-43.67 12.92-159.304-13.844-210.355zm-108.383.204a56.81 56.793 0 00-56.81 56.792 56.81 56.793 0 0056.81 56.793 56.81 56.793 0 0056.81-56.793 56.81 56.793 0 00-56.81-56.792zm-25.125 390.674l-.617 67.656s41.532-34.443 62.143-61.814c-33.224 1.538-61.526-5.842-61.526-5.842z" />
   <path style="filter: invert(.2);"
      d="M341.519.5a193.155 193.095 0 0168.22 147.224A193.155 193.095 0 01216.584 340.82a193.155 193.095 0 01-85.419-20.166 193.155 193.095 0 00124.931 45.867 193.155 193.095 0 00193.155-193.095A193.155 193.095 0 00341.52.5z" />
   <path style="filter: invert(.4);"
      d="M470.795 191.539A216.826 216.758 0 01255.638 382.78 216.826 216.758 0 0140.842 193.613a216.826 216.758 0 00-1.668 25.516A216.826 216.758 0 00256 435.888a216.826 216.758 0 00216.826-216.759 216.826 216.758 0 00-2.03-27.59z" />
</svg>