<svg xmlns="http://www.w3.org/2000/svg" viewBox="0 0 64 64" class="fill-primary">
   <style>
      .fill-primary {
         fill: #2f42af;
      }
   </style>
   <path style="filter: saturate(.1);"
      d="M3.005 9.906c1.193 5.48 8.927 6.01 6.187 16.087C6.452 36.069-2.74 49.769 3.89 55.78c6.63 6.01 17.766-8.132 25.368 1.68 7.6 9.81 17.004 4.46 14.863-5.181 4.34-11.522 29.581-1.62 12.625-21.248-11.152-12.452 6.807-18.586-1.99-24.978-8.795-6.393-20.83 5.47-16.03 13.17 7.057 11.322-.653 14.975-6.817 9.864-6.164-5.112 1.945-12.11-7.248-23.07-9.192-10.96-22.848-1.59-21.655 3.89z" />
   <path style="filter: invert(.3);"
      d="M18.769 49.898a.5.5 0 00-.37.433.5.5 0 00.447.548c.63.064 1.148.236 1.581.454a7.117 7.117 0 00-2.55-.121.5.5 0 00-.431.56.5.5 0 00.562.43c.778-.102 1.33-.005 1.877.078-.653.116-1.346.307-2.356.741a.5.5 0 00-.263.657.5.5 0 00.657.262c1.128-.485 1.892-.72 2.444-.783.548-.062.89.022 1.32.223a.5.5 0 00.019.01c.388.185.495.333.592.626.098.296.133.766.211 1.385a.5.5 0 00.56.433.5.5 0 00.433-.557c-.074-.582-.093-1.083-.255-1.575-.06-.18-.296-.286-.412-.45.302-.139.62-.308.934-.501.712-.439 1.367-.92 1.367-.92a.5.5 0 00.109-.7.5.5 0 00-.172-.147.5.5 0 00-.052-.34.5.5 0 00-.68-.197s-.768.422-1.503.901c-.246.16-.453.327-.668.492-.192-.523-.473-.971-.887-1.252-.68-.462-1.516-.622-2.336-.704a.5.5 0 00-.178.014zm20.538.498a.5.5 0 00-.334.249.5.5 0 00-.051.342.5.5 0 00-.173.146.5.5 0 00.11.699s.655.48 1.367.919c.317.194.638.369.943.508-.114.161-.345.265-.404.442-.163.491-.182.994-.255 1.576a.5.5 0 00.433.558.5.5 0 00.558-.434c.079-.62.114-1.09.212-1.385.098-.296.199-.445.597-.633.437-.205.783-.286 1.335-.224.553.063 1.315.297 2.442.782a.5.5 0 00.658-.262.5.5 0 00-.262-.657c-1.013-.436-1.708-.628-2.363-.743.547-.082 1.094-.178 1.868-.076a.5.5 0 00.561-.43.5.5 0 00-.43-.561 7.13 7.13 0 00-2.55.12c.433-.217.949-.391 1.578-.455a.5.5 0 00.448-.547.5.5 0 00-.547-.448c-.82.083-1.658.245-2.338.706-.414.281-.695.73-.888 1.252-.214-.164-.42-.33-.666-.49-.734-.48-1.504-.902-1.504-.902a.5.5 0 00-.345-.052z" />
   <path style="filter: invert(.2);"
      d="M23.186.2a.5.5 0 00-.42.255s-3.308 6.22-3.725 13.465c-2.12-5.406-2.6-10.418-2.6-10.418a.5.5 0 00-.994-.033s-.898 7.242.676 15.55C11.999 13.917 10.23 8.749 10.23 8.749a.5.5 0 00-.976.152l.023.15.002.005c.002.112.01 1.799.776 4.76.673 2.605 2.13 6.233 4.41 10.289-5.777-4.33-9.059-8.32-9.059-8.32a.5.5 0 00-.853.505s2.932 6.51 9.75 12.639c-6.235-1.892-10.524-4.604-10.524-4.604a.5.5 0 00-.68.711l.13.123c.075.102.921 1.258 3.025 2.893 1.812 1.408 4.74 3.07 8.457 4.595-5.433.161-10.412-.417-10.412-.417a.5.5 0 00-.332.921s1.065.639 3.428 1.377c2.03.635 5.287 1.324 9.501 1.842-4.718 1.972-8.796 3.076-8.796 3.076a.5.5 0 00.04.98s1.157.168 3.311.014c1.843-.131 4.593-.598 7.908-1.488-2.952 3.617-5.513 5.545-5.513 5.545a.5.5 0 00.226.916s.254.018.645-.045c.39-.062.964-.202 1.744-.502 1.33-.51 3.409-1.673 6.057-3.549-.766 2.338-2.123 4.713-2.123 4.713a.5.5 0 00.689.694s2.08-1.623 3.865-4.409c.231 1.454.23 2.877.23 2.877a.5.5 0 00.858.385s1.208-1.247 1.748-3.408a.5.5 0 00-.092-.428l-8.636-11.076 4.166-17.66a.5.5 0 00.007-.19C22.454 7.646 23.693.79 23.693.79a.5.5 0 00-.507-.59zm17.593.01a.5.5 0 00-.486.59s1.24 6.858.463 12.026a.5.5 0 00.006.184l3.984 17.758-8.455 10.986a.5.5 0 00-.09.426c.54 2.161 1.748 3.408 1.748 3.408a.5.5 0 00.858-.385s0-1.424.23-2.877c1.784 2.785 3.865 4.408 3.865 4.408a.5.5 0 00.692-.693s-1.357-2.374-2.123-4.71c2.646 1.873 4.726 3.036 6.054 3.546.78.3 1.354.44 1.745.502.39.062.644.043.644.043a.5.5 0 00.227-.914s-2.56-1.928-5.512-5.545c3.315.89 6.064 1.357 7.906 1.488 2.154.154 3.31-.013 3.31-.013a.5.5 0 00.044-.981s-4.08-1.105-8.797-3.076c4.213-.519 7.47-1.207 9.5-1.842 2.362-.739 3.43-1.377 3.43-1.377a.5.5 0 00-.334-.922s-4.98.58-10.413.418c3.717-1.525 6.645-3.188 8.457-4.596 2.104-1.634 2.95-2.79 3.026-2.892l.129-.123a.5.5 0 00-.68-.711s-4.288 2.712-10.523 4.603c6.817-6.128 9.75-12.64 9.75-12.64a.5.5 0 00-.854-.504s-3.28 3.988-9.055 8.316c2.28-4.054 3.733-7.68 4.407-10.285.766-2.963.774-4.654.775-4.764l.002-.001.023-.149a.5.5 0 00-.976-.152s-1.768 5.168-5.893 10.271c1.575-8.308.678-15.55.678-15.55a.5.5 0 00-.994.033s-.483 5.008-2.602 10.414C44.527 6.684 41.221.467 41.221.467a.5.5 0 00-.442-.256zm-8.746 47.22c-2.401.043-3.851 1.051-4.635 2.062-.722.933-.888 1.8-.914 1.942-1.461 3.902-2.246 6.67-2.246 6.67a.5.5 0 00.807.515s.732-.636 1.65-1.994a20.43 20.43 0 001.416-2.504c-.359 2.806-.894 6.72-.894 6.72a.5.5 0 00.887.352s.67-.841 1.41-2.654c.4-.981.813-2.323 1.191-3.932.078 2.022.075 4.745.223 5.883.27 2.073.588 2.895.588 2.895a.5.5 0 00.459.314.5.5 0 00.006 0 .5.5 0 00.494-.312s.32-.822.59-2.895c.148-1.138.142-3.86.22-5.879.378 1.606.794 2.946 1.194 3.926.739 1.813 1.408 2.654 1.408 2.654a.5.5 0 00.886-.351s-.535-3.914-.894-6.717c.488 1.008.98 1.853 1.418 2.502.918 1.358 1.648 1.994 1.648 1.994a.5.5 0 00.807-.516s-.783-2.762-2.24-6.656c-.02-.142-.162-1.045-.865-2.006-.761-1.038-2.205-2.057-4.614-2.013z" />
   <path style="filter: grayscale(0);"
      d="M25.025 35.345c-1.797-.799-2.765-2.606-2.73-5.384.035-2.75 1.283-4.382 2.783-6.008a.5.5 0 00.065-.59c-1.483-2.555-2.388-4.563-1.899-10.416a.5.5 0 00-.767-.463c-3.29 2.105-5.639 6.008-6.586 10.322-.948 4.315-.489 9.07 1.972 12.871l.01.016c2.979 4.243 8.637 6.577 9.014 6.73l.834 2.618c-.102.186-.818 1.495-1.5 2.681-.233.405-.906.606-1.565 1.065-.329.23-.66.597-.728 1.101-.069.505.092 1.058.472 1.752.311.567.831.898 1.348.916.517.018.976-.197 1.393-.455.417-.258.798-.577 1.12-.855.324-.279.611-.525.706-.584.49-.308 1.681-.342 3.047-.356 1.345.014 2.527.048 3.011.352.095.06.383.307.706.586.322.278.704.597 1.12.855.418.258.876.473 1.393.455.517-.017 1.037-.349 1.348-.916.38-.694.541-1.247.472-1.752-.068-.504-.399-.872-.728-1.101-.658-.459-1.332-.662-1.564-1.067-.683-1.186-1.4-2.497-1.5-2.681l.834-2.62c.38-.155 6.035-2.487 9.013-6.728l.01-.015c2.461-3.802 2.92-8.555 1.973-12.87-.948-4.314-3.3-8.22-6.588-10.324a.5.5 0 00-.768.463c.489 5.853-.416 7.863-1.898 10.418a.5.5 0 00.066.59c1.5 1.626 2.746 3.256 2.781 6.006.036 2.777-.93 4.587-2.728 5.386z" />
   <path style="filter: invert(.2);"
      d="M31.572 32.408c-.786.05-1.506.109-1.97.373-.597.339-.982.802-1.622 1.387-1.122 1.025-3.168 1.148-3.168 1.148a.5.5 0 00-.482.516c.035 1.182.88 1.994 1.723 2.617.842.622 1.75 1.14 2.129 1.578l.01.014c.492.531 1.368 1.816 2.083 2.937.443.964 1.07 2.355 1.743 2.362.673.007 1.29-1.695 1.716-2.364.716-1.12 1.592-2.408 2.084-2.94a.67.67 0 01.01-.011c.38-.438 1.287-.956 2.13-1.578.841-.623 1.687-1.437 1.722-2.62a.5.5 0 00-.483-.513s-2.045-.125-3.168-1.15c-.64-.585-1.025-1.046-1.62-1.385-.467-.265-1.187-.326-1.977-.375z" />
   <path style="filter: invert(.4);"
      d="M29.523 35.12a.5.5 0 00-.142.981l1.588.479a.5.5 0 10.289-.96l-1.588-.476a.5.5 0 00-.147-.023zm4.942 0a.5.5 0 00-.133.024l-1.586.477a.5.5 0 10.29.959l1.585-.479a.5.5 0 00-.156-.98z" />
   <path style="filter: grayscale(.25);"
      d="M31.688 34.91c-.24.057-.494.1-.653.246-.229.212-.34.48-.389.71-.042.2-.005.223.004.372-.207.059-.442.114-.597.184-.255.114-.477.25-.614.511-.136.261-.084.584.018.785.102.202.237.353.385.51.59.63 1.449 1.352 1.654 2.488a.5.5 0 00.473.409.498.498 0 00.037.002.5.5 0 00.496-.41c.205-1.137 1.064-1.859 1.654-2.489.148-.157.283-.308.385-.51.102-.2.154-.524.018-.785-.137-.26-.36-.397-.614-.511-.155-.07-.39-.125-.597-.184.01-.149.046-.172.004-.371a1.34 1.34 0 00-.39-.711c-.158-.147-.413-.19-.653-.246z" />
</svg>