<svg xmlns="http://www.w3.org/2000/svg" viewBox="0 0 512 512" class="fill-current">
   <path
      class="text-primary-content"
      d="M256 1C115.227 1 1 115.227 1 256s114.227 255 255 255 255-114.227 255-255S396.773 1 256 1zm0 10c135.369 0 245 109.631 245 245S391.369 501 256 501 11 391.369 11 256 120.631 11 256 11z" />
   <path
      class="text-primary filter saturate-50"
      d="M254.48 18.37c-57.746-.255-101.578 23.138-133.299 44.518 13.3 19.3 47.753 47.43 70.294 61.546 22.54 14.114 56.301 33.455 67.075 39.955 19.905 12.007 53.421 39.683 53.421 39.683s0-37.14 17.807-65.885c17.807-28.746 38.03-49.72 85.219-57.237-49.479-42.623-102.772-62.326-160.518-62.58zM34.69 179.27C9.079 260.943 24.52 331.93 63.463 387.98c36.385 52.37 95.059 87.46 157.645 97.505 15.874-18.333 33.215-42.115 23.702-63.022-13.942-30.64-59.903-55.853-95.959-83.692-37.226-28.742-66.888-53.165-85.17-79.736-18.283-26.572-24.957-48.779-28.99-79.766zm449.307 15.644c-39.225 30.567-87.964 62.735-103.99 91.662-16.027 28.927-12.557 56.508-20.952 84.234-8.395 27.726-33.613 80.233-75.278 113.924 69.68-6.78 124.5-44.447 157.57-87.693 33.07-43.245 45.164-86.056 47.707-112.003 2.544-25.948-.908-64.928-5.057-90.124z" />
   <path
      class="text-primary"
      d="M484.296 61.14c1.864 34.04-16.913 68.152-73.057 90.92 7.42-14.184 17.379-21.744 18.71-49.917-68.282 6.902-83.139 54.371-91.214 79.532-8.075 25.16-8.772 79.062 18.938 114.213 18.716-41.297 29.596-56.511 54.47-74.148 24.875-17.638 74.317-42.012 81.038-74.62 6.722-32.607 4.321-65.593-8.885-85.98z" />
   <path
      class="text-primary-focus"
      d="M84.55 21.424c-33.833 43.245-46.552 143.22-25.947 184.684 20.605 41.465 55.839 42.918 81.402 43.5 25.564.58 82.779 4.474 101.756 31.035-46.786-.752-82.554 10.648-123.632-4.834 25.317 34.123 74.185 64.443 109.131 92.089 22.582 17.863 40.472 48.15 38.255 71.951-2.217 23.8-14.135 32.86-26.808 57.53 37.056-23.919 77.08-62.325 92.851-104.044 15.772-41.72 20.097-87-8.903-135.842-10.018-16.874-31.244-38.298-60.072-58.604-54.617-38.471-122.216-71.895-145.726-98.86C93.347 73.064 80.99 49.406 84.55 21.424z" />
</svg>