<svg xmlns="http://www.w3.org/2000/svg" viewBox="0 0 64 64">
   <path
      class="fill-current text-primary"
      d="M27.924 0l-.004.002-.004.004c-.045.029-6.795 4.345-11.045 15.21-.99 2.533-3.167-2.55-1.682-10.913l.002-.008.004-.008-.004.004-.003.01c-.048.072-4.428 6.74-3.873 18.363.13 2.715-3.938-1.047-5.997-9.29v-.007l-.002-.004v.01c-.012.075-1.295 7.947 3.963 18.348 1.228 2.427-4.024.635-9.273-6.065l-.004-.004c.009.033 2.04 7.773 11.115 15.164C13.23 42.537 7.7 43.03.167 39.033c.027.036 5.044 6.276 16.347 9.35 2.632.716-2.215 3.401-10.723 2.805l-.017-.004.007.004c.004 0 .007.002.01.003.093.048 7.205 3.679 18.742 1.916 2.698-.412-.636 4.008-8.658 6.909l-.004.002c.032.002 8.055.47 17.92-5.842 2.297-1.47 1.055 3.92-5.09 9.82l-.002.002c.023-.008 7.547-2.827 13.985-12.594 1.497-2.272 2.565 3.151-.637 11.028l-.002.006c.022-.022 5.74-5.643 7.63-17.168.44-2.683 3.63 1.841 3.923 10.334v.002c.016-.041 2.936-7.487-.041-18.772-.694-2.628 4.067.21 7.802 7.85l.004.012v-.006-.002-.002c-.002-.054-.381-8.033-7.707-17.131-1.707-2.12 3.802-1.457 10.334 4.008l.01.011-.002-.006-.002-.002-.004-.006c-.039-.076-3.648-7.19-14.035-12.523-2.427-1.246 2.883-2.87 11.088-.52-.019-.015-6.232-5.093-17.945-5.761-2.726-.156 1.459-3.79 9.912-4.967h.01s-7.763-2.136-18.753 2.004c-2.553.962-.215-4.054 7.028-8.553-.044.007-7.98 1.214-16.305 9.424-1.94 1.912-1.852-3.615 2.924-10.656l.004-.004.004-.004zm25.674 55.607l-.002.006.002-.004v-.002z" />
   <g class="fill-current text-primary-content">
      <path
         d="M33.63 12.43a.5.5 0 00-.492.422l-.652 4.574a.5.5 0 10.99.143l.261-1.838 1.34.265-.279 1.662a.5.5 0 10.985.164l.355-2.123a.5.5 0 00.004-.015l.38-2.281a.5.5 0 00-.984-.165l-.296 1.771-1.361-.271.248-1.744a.5.5 0 00-.498-.565zm-3.436.15c-.223.005-.52.048-.82.2-.601.303-1.131 1.077-1.113 2.426.018 1.384.765 2.153 1.48 2.41.715.257 1.387.119 1.387.119a.5.5 0 10-.184-.983s-.451.071-.865-.078-.804-.402-.818-1.482c-.015-1.115.304-1.389.562-1.52.258-.13.535-.082.535-.082a.501.501 0 10.207-.98s-.148-.034-.37-.03zm-4.588.903a.5.5 0 00-.035.002s-.494.016-.98.261a1.499 1.499 0 00-.673.627c-.165.312-.195.724-.066 1.141.132.425.404.742.697.932.294.19.595.276.848.352.253.075.46.141.582.216.122.076.174.125.22.301.05.187.023.252-.019.322a.668.668 0 01-.262.221c-.255.134-.584.178-.584.178a.5.5 0 10.108.994s.472-.041.941-.287c.235-.123.486-.304.658-.596.172-.291.23-.687.125-1.086a1.521 1.521 0 00-.664-.896c-.286-.176-.573-.253-.82-.326-.247-.074-.451-.144-.588-.233-.136-.088-.22-.172-.287-.389-.07-.224-.041-.307-.006-.375a.535.535 0 01.238-.2c.248-.125.59-.159.59-.159a.5.5 0 00-.023-1zm14.39.763a.5.5 0 00-.385.2l-1.74 2.31a.5.5 0 00-.105.143l-.95 1.26a.5.5 0 10.8.602l.74-.983 1.133.635-.38 1.234a.5.5 0 00.958.293l.496-1.619.898-2.93a.5.5 0 00-.25-.592l-.973-.498a.5.5 0 00-.242-.054zm.162 1.137l.225.116-.594 1.938-.828-.465zm-18.9.665s-.45-.019-.933.197c-.484.215-1.036.728-1.178 1.592-.086.52.088 1.02.359 1.455.271.434.65.819 1.076 1.12.425.303.896.525 1.387.59.491.066 1.047-.062 1.408-.482.311-.361.45-.787.435-1.17a1.973 1.973 0 00-.322-.973c-.328-.525-.78-.85-.78-.85a.5.5 0 00-.648.044l-.652.642a.5.5 0 10.701.713l.29-.283c.1.101.146.114.24.264.102.164.166.334.172.48.005.147-.025.284-.194.48-.119.14-.252.18-.517.145s-.619-.186-.942-.416a3.08 3.08 0 01-.805-.834c-.186-.299-.253-.577-.222-.763.09-.551.338-.724.597-.84.26-.116.495-.111.495-.111a.5.5 0 10.033-1zm23.03 1.105a.5.5 0 00-.367.158l-1.434 1.539-1.482 1.588a.5.5 0 10.73.681l.848-.908c.092.408.281.88.23 1.162-.084.474-.253.715-.253.715a.5.5 0 10.826.562s.294-.437.412-1.102c.058-.325.073-.719.01-1.152.184.075.347.178.566.194.376.026.806-.095 1.145-.402a1.33 1.33 0 00.428-1.158c-.06-.382-.254-.686-.457-.94a4.628 4.628 0 00-.918-.85.5.5 0 00-.283-.087zm.03 1.199c.146.12.234.166.392.363.142.177.231.361.248.469.017.107.028.136-.111.263-.148.135-.252.155-.403.145-.15-.01-.344-.083-.53-.194-.18-.105-.204-.157-.325-.265zm-27.88 1.623a.5.5 0 00-.051.002.5.5 0 00-.244.912l2.2 1.543-3.3-.11a.5.5 0 00-.3.912l3.712 2.541a.5.5 0 10.566-.824l-2.297-1.572 3.268.11a.5.5 0 00.303-.91l-3.578-2.509a.5.5 0 00-.28-.095zm-3.132 5.916a.5.5 0 10.014 1s1.072-.008 2.07.218c.5.114.971.293 1.248.504.277.212.376.37.324.713-.052.343-.175.437-.49.535-.315.098-.814.1-1.318.03-1.009-.142-2.023-.536-2.023-.536a.5.5 0 10-.365.932s1.084.43 2.25.594c.583.082 1.194.11 1.754-.065.56-.174 1.077-.65 1.182-1.34.104-.69-.237-1.299-.707-1.658s-1.055-.552-1.631-.683c-1.152-.262-2.307-.244-2.307-.244zm36.7.11a.5.5 0 00-.128.016l-1.982.516-.012.002a.5.5 0 00-.008.002l-2.021.531a.5.5 0 00-.357.606l.43 1.7a.5.5 0 10.97-.245l-.31-1.221 1.071-.282.25.85a.5.5 0 00.961-.281l-.242-.823 1.021-.263.324 1.2a.5.5 0 10.965-.26l-.453-1.68a.5.5 0 00-.478-.368zm1.03 4.464l-4.573.054a.5.5 0 00-.39.118.5.5 0 00-.004.002.5.5 0 00-.033.033.5.5 0 00-.004.004.5.5 0 00-.121.47c-.01.134-.052.52.049 1.074.058.322.155.666.375.971.219.305.611.557 1.066.56.455.005.846-.22 1.107-.5.123-.132.175-.289.261-.437.065.137.086.28.186.406.236.297.629.538 1.086.543.463.005.866-.253 1.086-.566.22-.313.314-.665.369-.996.11-.661.04-1.285.04-1.285a.5.5 0 00-.501-.451zm-.508 1.006c.004.2.027.294-.018.566-.04.246-.12.47-.201.586-.082.116-.11.142-.258.14-.155-.001-.214-.042-.312-.165-.099-.124-.193-.342-.252-.578-.066-.26-.05-.346-.061-.536zm-2.283.027c-.04.183-.031.24-.12.467-.094.242-.22.467-.347.603-.128.137-.22.185-.367.184-.148-.001-.182-.03-.264-.144-.082-.115-.16-.33-.203-.565-.046-.255-.025-.34-.024-.53zm-33.09.108c-.746.03-1.633.165-2.73.23a.5.5 0 10.06.998c1.52-.09 2.667-.28 3.278-.223.306.029.43.095.506.184.076.089.16.288.16.723a.5.5 0 101 0c0-.56-.103-1.028-.4-1.375-.297-.347-.734-.485-1.174-.526a5.328 5.328 0 00-.701-.011zm30.81 3.31a.5.5 0 00-.143.973l2.482.897-3.068.652a.5.5 0 00-.06.96l4.063 1.415a.5.5 0 10.33-.945l-2.372-.827 3.029-.642a.5.5 0 00.066-.96l-4.133-1.491a.5.5 0 00-.195-.031zm-27.98 2.159a.5.5 0 00-.442.738l.51.976-3.523 1.646a.5.5 0 10.424.907l3.996-1.867a.5.5 0 00.232-.684l-.752-1.441a.5.5 0 00-.445-.275zm26.25 2.246a.5.5 0 00-.366.83l.604.707-.957 1.23-.871-.424a.5.5 0 00-.438.898l1.234.602a.5.5 0 00.002.002l3.03 1.475a.5.5 0 00.624-.16l.586-.817a.5.5 0 00-.027-.615l-2.102-2.461v-.002a.5.5 0 00-.115-.135l-.81-.949a.5.5 0 00-.395-.182zm-24.43.74a.5.5 0 00-.399.814l.766.973-.932.727-.492-.64a.5.5 0 00-.793.608l.49.64-.918.692-.767-.99a.5.5 0 10-.79.615l1.07 1.377a.5.5 0 00.696.092l1.689-1.271a.5.5 0 00.025-.018.5.5 0 00.006-.005l.006-.004 1.721-1.342a.5.5 0 00.084-.705l-1.074-1.365a.5.5 0 00-.389-.198zm25.33 1.572l1.508 1.768-.112.156-2.098-1.021zM40.803 43a.5.5 0 00-.366.806c.05.066.093.114.182.22l.346.405c.276.322.63.732.98 1.137.536.62.842.972 1.06 1.221l-.653.582a.5.5 0 10.666.746l.986-.882a.5.5 0 00.031-.028l.924-.824a.5.5 0 00-.666-.746l-.545.486a391.692 391.692 0 01-2.024-2.344l-.341-.398c-.087-.102-.158-.192-.145-.174a.5.5 0 00-.384-.207.5.5 0 00-.051 0zm-16.76.986a.5.5 0 00-.407.229l-.867 1.31c-.204-.143-.28-.24-.652-.384-.322-.126-.698-.22-1.104-.158a1.57 1.57 0 00-1.086.752 1.74 1.74 0 00-.213 1.295c.094.395.305.716.527.974.444.517.977.819.977.819a.5.5 0 00.668-.155l1.414-2.135a.5.5 0 00.088-.133l1.082-1.633a.5.5 0 00-.428-.78zm16.08 1.391a.5.5 0 00-.266.09l-1.082.744a.5.5 0 10.564.824l1.084-.742a.5.5 0 00-.3-.916zm-3.506.03a.5.5 0 00-.053.001.5.5 0 00-.442.637l.336 1.248-.252.584-1.418-1.795a.5.5 0 10-.785.62l1.752 2.22-.869 2.012a.5.5 0 00.918.397l.988-2.287a.5.5 0 00.008-.018l.076-.18.493 1.83a.5.5 0 00.964-.26l-.863-3.214a.5.5 0 00-.002-.006l-.379-1.41a.5.5 0 00-.472-.38zm-8.775.335a.5.5 0 00-.46.377l-.38 1.41c-.231-.067-.322-.131-.702-.15-.337-.017-.715.012-1.08.181-.364.17-.698.508-.851.975-.156.475-.07.96.146 1.307.217.348.528.58.83.756a4.718 4.718 0 001.238.486.5.5 0 00.592-.357l.649-2.408a.5.5 0 00.043-.154l.48-1.785a.5.5 0 00-.506-.637zm-6.674.229c.15-.023.366.015.59.101.244.096.308.169.468.278l-.863 1.305c-.142-.107-.206-.124-.36-.303-.154-.18-.27-.377-.312-.553-.042-.176-.036-.328.098-.549.13-.215.23-.256.379-.279zm8.746.328a.5.5 0 00-.497.57l.18 1.148.537 3.44a.5.5 0 00.51.421l.94-.03a.5.5 0 00.472-.394l.73-3.404a.5.5 0 00.034-.158.5.5 0 000-.002l.209-.975a.5.5 0 10-.979-.21l-.144.675-1.389.045-.111-.71a.5.5 0 00-.492-.417zm-3.664 2.08c.25.012.319.057.496.105l-.39 1.45c-.189-.062-.276-.066-.507-.2-.217-.126-.397-.282-.484-.422-.087-.14-.118-.244-.045-.465.075-.228.171-.31.322-.38s.373-.1.608-.088zm5.439.01l-.53 2.475-.105.004-.383-2.445z" />
      <path
         d="M33.2 22.83l-2.5.004.002 1.25.006 3.824-4.021.014-1.25.003.008 2.5 5.268-.017.004 2.746h-.002l.004 1.219s-.035.841-.356 1.609c-.16.384-.38.713-.635.922-.255.209-.537.344-1.086.336-1.112-.017-1.402-.524-1.7-1.27-.3-.746-.315-1.551-.315-1.551l.002-1.25-2.5-.004-.002 1.25s-.02 1.206.492 2.484 1.845 2.807 3.986 2.84c1.078.016 2.028-.347 2.705-.9.272-.223.491-.472.685-.727.724.855 1.827 1.563 3.311 1.559 2.151-.006 3.514-1.483 4.027-2.742.514-1.26.477-2.45.477-2.45l-.02-1.25-2.5.042.02 1.25s-.006.766-.291 1.465c-.285.699-.55 1.182-1.721 1.186-1.155.003-1.448-.5-1.754-1.236-.305-.735-.326-1.534-.326-1.537v-.004l-.006-3.996 4.125-.014 1.25-.004-.008-2.5-5.37.018-.007-3.818z" />
   </g>
</svg>