<svg xmlns="http://www.w3.org/2000/svg" viewBox="0 0 16.933 16.933">
   <path style="filter: invert(.3);"
      d="M4.003 6.586l-.12-.514.438-.58-.423.008.345-.683.516-.365 5.16-1.53.9-.021.591.189-.212.224.555.177.012.343.403.41-3.64 1.965z" />
   <path
      d="M11.611 13.85l-2.582.922.016.886c1.288.322 3.535.562 4.367-.18l-.018-.707s-.493-.64-1.783-.92zm-7.449.74l-.175.628c.84 1.145 2.22 1.652 3.116 1.559.896-.093.933-.965 1.75-1.112l-.01-.908-2.689-.47c-.625.02-1.578-.22-1.992.303z" />
   <path style="filter: invert(.5);"
      d="M11.848 10.268l-.66.145v1.282c.365-.37.636-.602.66-1.427zm-6.243.713c-.047.899.316 1.294.602 1.56l.098-1.326z" />
   <path style="filter: invert(.2);"
      d="M9.03 14.772s1.065.537 2.581-.922c-.114-.287-.162-.606-.343-.862l-2.393-.586-2.461.645c-.272.402-.26 1.24-.26 1.24 1.347 1.023 2.689.47 2.689.47s-.018-.55.079-.545c.096.004.107.56.107.56z" />
   <path
      d="M10.851 8.368c.574.188.953.613.997 1.9l-.485.244c-.042 1.123-.39 1.191-.095 2.476-1.25.387-1.502-.193-2.37-.193-.866 0-1.233.704-2.484.252-.464-.823-.261-1.79-.261-1.79l-.548-.276s-.052-1.213.601-1.697z" />
   <path style="filter: invert(.5);"
      d="M9.828 3.55c1.134 0 1.689.963 1.689.963 1.37-1.057 1.638 1.347.431 1.423-.248 1.256-.485 2.33-2.009 2.995-.239.696-.92.673-1.517.53-1.01.03-3.075.194-3.633-1.564-1.425.514-1.478-1.464-.312-1.44 0 0 .127-1.133.978-1.641z" />
   <path style="filter: invert(.3);"
      d="M8.863 12.559a.398.398 0 00-.396.396c0 .218.179.397.396.397a.398.398 0 00.397-.397.398.398 0 00-.397-.396zM10.737 4.375a.132.132 0 00-.132.132.132.132 0 00.132.133.132.132 0 00.132-.133.132.132 0 00-.132-.132zM9 4.404a.132.132 0 00-.033.258l.271.094a.132.132 0 10.086-.25l-.271-.094A.132.132 0 009 4.404zm3.293.12v.001c-.186-.009-.293-.01-.392.066a.21.21 0 00-.073.178.26.26 0 00.063.13c.053.065.082.071.136.108-.04.036-.057.037-.093.095-.042.066-.077.173-.022.273.055.1.16.144.3.17a.133.133 0 10.048-.262.304.304 0 01-.107-.033l.005-.008a.793.793 0 01.141-.137.132.132 0 00-.008-.225s-.06-.048-.111-.085c.037-.006.024-.01.101-.007a.132.132 0 10.012-.263zm-1.944.185a.132.132 0 00-.132.133.132.132 0 00.132.132.132.132 0 00.133-.132.132.132 0 00-.133-.133zm.473.139a.132.132 0 00-.123.132.132.132 0 00.132.132.132.132 0 00.133-.132.132.132 0 00-.133-.132.132.132 0 00-.009 0zM9.1 4.965a.265.265 0 00-.265.264.265.265 0 00.265.265.265.265 0 00.264-.265.265.265 0 00-.264-.264zm-1.755.007a.132.132 0 00-.016 0 .132.132 0 00-.08.038l-.215.2a.133.133 0 10.182.194l.215-.201a.132.132 0 00-.086-.231zm2.65.187a.132.132 0 00-.014 0 .132.132 0 00-.064.241l.316.223c.158.36.117.798-.072 1.21A2.35 2.35 0 019.21 7.88c-.41.23-.873.304-1.332.117-.448-.183-.904-.626-1.284-1.464l.177-.33a.132.132 0 00-.12-.196.132.132 0 00-.113.072l-.188.35a.132.132 0 00-.036.068l-.1.185a.133.133 0 00.225.14c.383.768.849 1.219 1.34 1.419.54.22 1.096.13 1.56-.13.464-.262.845-.69 1.062-1.165.163-.355.235-.74.172-1.102a.132.132 0 00.092-.24l-.246-.172a.132.132 0 00-.01-.008l-.34-.238a.132.132 0 00-.073-.026zm-2.389.252a.265.265 0 00-.264.265.265.265 0 00.264.264.265.265 0 00.265-.264.265.265 0 00-.265-.265zm.96.143a.98.98 0 00-.665.315.133.133 0 10.194.181c.34-.362.72-.212.72-.212a.133.133 0 10.088-.25s-.14-.047-.336-.034zm-3.082.014a.132.132 0 00-.123.132.132.132 0 00.133.133.132.132 0 00.132-.133.132.132 0 00-.132-.132.132.132 0 00-.01 0zm.434.154a.132.132 0 00-.132.132.132.132 0 00.132.132.132.132 0 00.133-.132.132.132 0 00-.133-.132zm3.867.106a.132.132 0 00-.098.054s-.081.116-.258.124a.132.132 0 00-.12.086c-.355.921-1.54.846-1.777.18a.133.133 0 10-.25.087c.309.87 1.649.862 2.157-.088.296-.012.46-.23.46-.23a.132.132 0 00-.101-.213.132.132 0 00-.013 0zm-4.197.224a.132.132 0 00-.133.133.132.132 0 00.133.132.132.132 0 00.132-.132.132.132 0 00-.132-.133zm-1.247.68a.362.362 0 00-.092.014.996.996 0 00-.207.084.132.132 0 10.119.236c.015-.008.02-.007.034-.014a17.41 17.41 0 01-.122.194.132.132 0 00.115.213s.066.005.116.006c-.03.024-.016.017-.07.049a.132.132 0 10.132.228c.165-.095.255-.147.3-.263a.208.208 0 00-.034-.194.242.242 0 00-.123-.07c-.048-.014-.057-.002-.104-.006.038-.058.057-.07.086-.137a.388.388 0 00.035-.135c.003-.052-.02-.138-.088-.178a.192.192 0 00-.097-.027zm5.188 1.965a.132.132 0 00-.083.031s-.362.29-.703.166a.132.132 0 10-.09.248c.51.184.963-.21.963-.21a.132.132 0 00-.087-.235z" />
   <path style="filter: invert(.2);"
      d="M5.641 3.577c-.292.341-1.15.23-1.476-.634-.781 1.134 2.059 2.874 3.464 1.534 1.77-.193 3.797-1.499 1.157-2.961l-1.502.6z" />
   <path
      d="M9.884.251a.555.555 0 00-.095 0c-.126.012-.257.06-.393.126-.272.131-.57.344-.851.572-.512.413-.922.83-1.002.912a.684.684 0 00-.158-.02.608.608 0 00-.324.087c-.091.056-.168.152-.168.27 0 .01.003.017.004.026-.18.04-.59.134-1.05.305-.286.107-.56.231-.748.39a.573.573 0 00-.199.286c-.03.115 0 .244.083.35.084.108.2.176.322.197a.729.729 0 00.365-.045c.24-.087.48-.26.701-.453.372-.324.64-.65.733-.765a.617.617 0 00.28.067.61.61 0 00.325-.085c.09-.057.168-.153.168-.272a.279.279 0 00-.043-.144c.23-.086.693-.264 1.224-.52.344-.166.672-.346.897-.527a.825.825 0 00.252-.291.329.329 0 00-.064-.356.41.41 0 00-.259-.11z" />
</svg>