<svg xmlns="http://www.w3.org/2000/svg" viewBox="0 0 64 64" class="fill-primary">
   <style>
      .fill-primary {
         fill: rgb(136, 199, 77);
      }
   </style>
   <path style="filter: saturate(.1)"
      d="M20.724 3.73c-5.636-.276-12.779 7.775-4.603 16.177 5.788 6.354-6.337 7.738-10.716 11.54-4.38 3.803-5.472 10.155 2.923 14.23 8.394 4.075-.672 13.937 8.435 16.837 9.107 2.901 9.188-19.39 21.503-6.748 12.316 12.642 16.868 5.629 17.239-6.309.37-11.937-4.181-13.73.583-19.201 4.765-5.472 9.773-18.446 3.97-24.834C54.254-.965 49.207 3.308 39.65 7.96c-9.556 4.652-13.29-3.953-18.927-4.23z" />
   <path style="filter: invert(.3)"
      d="M22.508 37.904s1.654-6.662 2.043-10.742c.388-4.078-.412-6.476-.412-6.476a.5.5 0 00-.703-.283c-1.32.68-2.228 1.96-2.881 3.19-.654 1.23-1.057 2.445-1.262 2.983-.14.366-.34 1.127-.605 2.164-.266 1.037-.578 2.31-.877 3.547-.599 2.475-1.143 4.809-1.143 4.809-.062.268 1.163 3.655 1.431 3.717 1.41-.913 3.157-2.141 4.409-2.909z" />
   <path style="filter: invert(.3)"
      d="M43.17 37.14l13.5 18.047c.346.465 1.073.068.87-.474 0 0-.601-1.607-1.386-3.477-.784-1.869-1.73-3.98-2.529-5.113-1.473-2.09-7.785-10.889-7.785-10.889-.094-.131-2.835 1.685-2.67 1.907z" />
   <path style="filter: invert(.3)"
      d="M51.673 19.516c.06-.27-3.468-3.535-3.737-3.594 0 0-5.648-1.255-11.815-2.467-3.084-.606-6.297-1.2-9.006-1.623-2.708-.422-4.863-.684-6.035-.584-4.245.362-9.209 2.188-9.209 2.188a.5.5 0 00-.139.86c2.812 2.242 8.782 4.01 12.086 4.616 2.59.476 21.756 3.746 21.756 3.746a.5.5 0 00.576-.408" />
   <path style="filter: invert(.2)"
      d="M58.22 17.15a.5.5 0 00.063-.703c-4.312-5.133-7.259-8.467-9.414-10.58-2.155-2.113-3.526-3.044-4.775-3.252a.5.5 0 00-.319.053l-1.312.707a.5.5 0 00-.262.395c-.154 1.698-.239 2.858-.096 3.851.144.994.545 1.8 1.256 2.647a.5.5 0 00.65.1l2.786-1.772c.4.44 2.518 2.782 2.984 3.33.25.292.57.753.678 1.154.107.401.105.674-.377 1.031-.145.108-.33.122-.66.01s-.736-.359-1.11-.644a11.117 11.117 0 01-1.367-1.268.5.5 0 00-.853.187s-.62 2.077.853 3.801c1.395 1.633 3.733 2.987 3.733 2.987a.5.5 0 00.685-.178M19.375 39.92l-.734-1.441a.5.5 0 00-.715-.194s-.17.102-.354.139a.5.5 0 01-.224.002c-.053-.015-.09-.032-.153-.123-.126-.186-.079-.256.018-.416.097-.16.246-.281.246-.281a.5.5 0 00.094-.7l-1.729-2.287c-.3-.4-.936-.16-.898.338l.111 1.535c-.154.112-.559.423-1.285.723-.85.351-1.804.512-2.479.055-.701-.476-1.287-1.658-1.746-2.91-.458-1.253-.77-2.516-1.316-3.3-.953-1.366-2.941-3.044-2.941-3.044a.5.5 0 00-.575-.053l-2.752 1.592a.5.5 0 00-.197.654s1.37 2.785 2.67 4.72c.45.67 1.673 2.152 3.182 3.942a605.703 605.703 0 004.744 5.547c.887 1.027 1.631 1.46 2.209 1.613.288.077.533.08.713.055.18-.025 4.236-5.92 4.111-6.166z" />
   <path style="filter: invert(.2)"
      d="M42.22 37.273a.5.5 0 00-.45.666l1.203 3.573c-.27.034-.38-.006-.77.172-.72.328-1.496 1.109-1.476 2.406.015 1.065.799 1.908 1.5 2.533.143.128.148.103.285.211-.146.018-.143-.007-.297.023-.438.087-.9.227-1.309.485-.408.258-.77.67-.873 1.219-.11.582.067 1.13.348 1.568.28.438.663.792 1.045 1.082.088.067.092.045.18.105-.19.026-.193-.006-.391.038-.503.11-1.023.279-1.461.59-.439.31-.795.82-.8 1.447-.01 1.072.832 1.81 1.564 2.298l.01.006c-.12.025-.117-.001-.239.032-.477.128-.977.321-1.4.652-.424.33-.768.832-.825 1.459-.05.559.137 1.057.42 1.43.284.372.651.637 1.008.836.714.396 1.43.54 1.43.54a.5.5 0 10.203-.98s-.592-.128-1.146-.435c-.278-.154-.534-.35-.698-.565a.983.983 0 01-.22-.736c.03-.336.179-.555.443-.762.264-.206.648-.368 1.045-.475.794-.213 1.594-.212 1.594-.212a.5.5 0 00.18-.967s-.632-.242-1.25-.655c-.62-.412-1.124-.964-1.12-1.459.003-.29.117-.455.379-.64.262-.186.67-.333 1.096-.426.852-.186 1.736-.166 1.736-.166a.5.5 0 00.211-.959s-.699-.3-1.344-.791c-.322-.245-.622-.536-.808-.826-.186-.29-.262-.556-.207-.846.045-.24.177-.4.425-.557.249-.156.606-.275.97-.347.725-.144 1.44-.111 1.44-.111a.5.5 0 00.28-.93s-.62-.37-1.238-.922c-.619-.552-1.159-1.285-1.166-1.803-.014-.935.405-1.259.89-1.48.486-.222 1-.227 1-.227a.5.5 0 00.477-.658l-1.377-4.088a.5.5 0 00-.496-.348zM19.314 50.244a.5.5 0 00-.406.229s-.63.936-.986 1.976c-.179.52-.308 1.074-.192 1.625.117.551.603 1.054 1.3 1.174.7.12 1.326-.163 1.7-.607.375-.444.56-1.003.678-1.55.235-1.09.168-2.187.168-2.187a.5.5 0 10-.998.057s.049 1.005-.148 1.92c-.099.457-.265.878-.465 1.115-.2.238-.369.336-.768.268-.403-.07-.44-.161-.49-.397-.05-.235.011-.66.16-1.094.298-.868.873-1.746.873-1.746a.5.5 0 00-.426-.783z" />
   <path
      d="M55.416 16.232c-2.002.378-3.778 1.462-4.758 2.102-.96.627-7.66 4.995-14.431 9.436-6.747 4.424-13.474 8.857-14.83 9.85l-.055.034c-1.24.91-3.486 2.469-4.992 4.442-.754.986-1.331 2.088-1.465 3.289-.134 1.2.205 2.481 1.181 3.705 1.94 2.429 4.545 2.65 6.743 2.068 2.197-.582 4.082-1.897 4.96-2.53 1.701-1.222 25.809-18.23 28.282-20.017 1.189-.858 3.306-2.146 4.765-3.82.73-.837 1.306-1.784 1.479-2.853.173-1.07-.088-2.238-.924-3.391-1.655-2.283-3.953-2.692-5.955-2.315z" />
   <path style="filter: invert(.4)"
      d="M49.758 22.734l-.783.62.308.392.801 1.016-1.457 1.06-.326.225-.155.121c-.13.09-.33.216-.593.307-.195.066-.383.09-.522.064-.138-.026-.243-.074-.375-.273-.143-.218-.16-.359-.146-.485a.77.77 0 01.168-.377c.189-.245.474-.41.474-.41l.44-.238-.475-.88-.44.24s-.444.23-.79.679a1.755 1.755 0 00-.371.877c-.04.358.055.763.304 1.142.261.397.647.637 1.026.707.1.02.194.007.29.008-.03.093-.07.178-.085.28-.056.376.03.815.303 1.193.265.367.629.592.988.658.359.067.688-.005.959-.11a3.01 3.01 0 00.916-.572l.365-.341-.684-.73-.365.341s-.278.249-.592.37a.806.806 0 01-.418.06c-.113-.021-.218-.067-.359-.262-.133-.185-.146-.308-.123-.459.023-.151.108-.332.23-.5.18-.245.37-.406.485-.496.06-.044.16-.113.16-.113l.246-.18.117-.08-.002-.004 1.426-1.037 1.06 1.344.311.392.785-.619-.31-.393-1.037-1.314 1.293-.941.404-.293-.588-.809-.404.293-1.324.965-.825-1.045z" />
</svg>