<svg width="128" height="128" xmlns="http://www.w3.org/2000/svg" viewBox="0 0 128 128">
  <path d="M56.2 0v38.2H17.7v18h38.5v31.5S56 94 53.6 99.9C51 105.7 48.5 110 39 110c-10 0-12.8-4.4-15.3-10.2-2.5-5.8-2.6-12.1-2.6-12.1v-9H3v9s-.2 9.4 4 19.2A34.5 34.5 0 0 0 39 128c11.7 0 20.3-5.7 25.8-12.4a31 31 0 0 0 25 12.4 33.8 33.8 0 0 0 31.2-21.2c4-9.8 4-19.1 4-19.1v-9h-18v9s-.2 6.3-2.6 12.2c-2.5 5.8-5.1 10.1-14.6 10.1-4.3 0-6.5-1.1-8.4-2.8-2-1.6-3.6-4.2-4.8-7.2-2.3-5.9-2.4-12.3-2.4-12.3V56.2h36.1v-18H74.2V0Z"></path>
</svg>