<svg xmlns="http://www.w3.org/2000/svg" viewBox="0 0 64 64">
  <path style="filter: invert(.3);"
    d="M11.104 41.349c.893-.53 1.843-.193 2.466-.121.624.072 2.168.195 2.97-.75.804-.947 1.144-2.826 1.623-3.931.479-1.106.66-1.647 1.148-2.464.487-.817.692-1.374 1.736-2.404 1.044-1.03 2.789-2.746 4.47-3.62 1.68-.872 4.103-1.527 5.322-1.801 1.218-.274 1.764-.084 1.874-.38.11-.296-.923-.353-1.695-.322-.356.015-1.227.238-1.544.21-.342-.029 1.182-.546 1.693-.673.51-.128 1.217-.427 2.697-.295 1.285.15 2.751.629 3.044.256-.347-.65-2.52-1.232-3.285-1.267-.767-.035-2.056-.185-3.27-.025s-2.812.437-3.84.753-1.863.833-1.982.648c-.12-.186.93-.644 1.474-.86.544-.215 1.52-.425 2.262-.617s1.169-.242 1.425-.67c.256-.429-.729-.302-1.466-.306-.736-.004-2.176.297-2.918.605s.26-.643-.502-.808c-.763-.166-2.297.488-3.313.876-1.015.388-2.356 1.029-3.363 1.76-1.006.732-1.98 1.527-2.88 2.445-.897.918-1.826 1.877-2.552 2.81-.726.935-1.274 1.677-1.804 2.61-.53.934-.996 1.672-1.33 2.716-.334 1.045-.793 2.435-.99 3.394-.195.96-.266 1.58.188 2.128.454.549 1.45.632 2.342.103z" />
  <path
    d="M.092 35.411c-.127.031-.102.238-.046.401.037.107.074.184.26.201.073.007.721-.05.987-.041.265.009 1.585.031 1.963-.035.38-.066 1.423-.506 1.554-.564.13-.058.35.042.569.145.22.103.59.074 1.026-.098.276-.109 1.191-.112 1.667-.289.274-.102.19-.305.364-.348.176-.04.288.095.445.13.212.048.444.018.458.119.023.175-.252.298-.909.444-.657.147-2.052.451-2.814.57-.763.12-.713.23-1.058.24-.345.01-.381.346-.015.453.367.107 1.08-.238 1.703-.176s.634.206 1.133.257c.499.052 1.242.074 1.685.235.443.16 2.25-.145 3.213-.34.963-.194 1.916-.729 2.99-.859 1.074-.13 2.548-.499 3.345-.762.797-.263.918-.424 1.587-.722.393-.174 1.144-.374 1.651-.533.358-.112.567-.135.557-.414-.013-.325-.12-.565-.162-.788-.044-.239-.142-.548-.277-.67-.194-.174-.497.005-.74-.027-.269-.035-.32-.29-.681-.286-.223.003-.235.26-.546.343-.302.082-.743.032-1.102.07-.419.044-.515.107-.898.08-.383-.028-.806-.395-.855-.14-.048.254-.43.297-.776.255-.243-.03-.186-.45-.38-.609-.082-.067-.41.064-.578.02-.557-.143-1.607.153-2.255.304-.648.15-1.123.45-1.636.57-.514.12-.606.192-1.153.263-.547.07-.743-.107-1.473.036-.73.143-2.855.935-3.212.954-.358.02-2.013.723-2.947.99-.934.268-2.433.57-2.644.621zm9.198 3.872c.626-.001 1.244-.234 2.226-.32.983-.087 2.184-.327 3.08-.405.895-.078 1.7.184 2.318.145.617-.039 1.76-.044 2.57-.187.81-.144 1.487-.471 2.341-.674.855-.202 1.567-.598 2.327-.957.759-.36 1.447-.803 2.061-1.225.615-.422 1.245-.673 1.57-.99.326-.318.553-.5.44-.845a2.724 2.724 0 00-.667-1.07c-.352-.358-.61-.697-.925-.933-.315-.235-.461-.36-.707-.367-.104-.003-.575.383-.904.58-.448.27-.792.397-1.06.608-.466.366-.59.626-1.036.87-.446.244-.497.566-.892.767-.395.202-.805.217-1.31.436-.503.22-1.243.556-1.802.757-1.027.171-1.809.626-2.659.74-.85.115-1.979.73-2.72.94-.74.211-1.57.38-2.279.463-.708.084-1.114.165-1.811.325-.698.16-2.218.525-2.264.811-.045.287 1.478.532 2.103.531zm-.387 1.46c.102.492.815.993 1.4 1.07.584.077.23-.229 1.73-.769 1.502-.54 2.46-.113 3.383-.09.566.015 1.135.092 1.582.038.377-.045.453.096.755-.128.3-.224.817.09 1.547-.095.729-.185 1.5-.268 2.617-.673.749-.27 1.287.047 1.793-.08 1.297-.324 1.841-1.09 2.921-1.526 1.08-.436 1.712-.447 2.679-.841.966-.394 1.809-.766 2.608-1.19.798-.426 1.299-.865 1.904-1.308.32-.233.86-.59 1.295-.84.39-.226.551-.334.57-.563.042-.485-.21-.36-.405-.632-.097-.136-.244-.091-.497-.323s-.032-.376-.48-.563c-.446-.187-1.598-.864-1.822-.835-.224.028-.434.295-.77.703-.3.362-.93.901-1.242 1.151-.663.532-1.195.87-1.662 1.16-.468.29-.409.739-.691.896-.353.197-1.03.539-1.432.79-.742.464-1.117.682-2.064 1.185-.947.504-2.013.64-2.757.971-.744.331-.402.468-1.163.673-.76.205-1.98.4-2.725.552-.745.152-1.177.338-1.836.46-.659.12-1.124.202-1.679.216-.554.014-.8-.087-1.63-.048-.83.04-4.03.147-3.929.64zm8.17.98c-.1.093-.092.21-.122.323-.04.153-.07.252.33.235.398-.016 1.313-.49 2-.558.687-.069.781.178 1.667.096.572-.053 1.73-.196 2.372-.379.641-.182.944-.251 1.927-.515.984-.264 2.602-.633 3.172-.776.57-.144 2.896-.866 4.262-1.047 1.367-.181 2.447-1.068 3.678-1.558 1.231-.49 2.106-.208 3.06-.973.955-.766 1.819-1.091 2.55-1.103.733-.012 1.429.096 1.85.037.421-.06.56-.717.958-1.006.4-.288 1.401-.635 1.38-.878-.021-.244-.085-.684-.198-.947-.113-.262-.54-.289-.855-.37-.316-.081-.763.013-.97-.17-.206-.183.089-.29-.238-.676-.19-.222-.705-.433-1.156-.64-.332-.152-.592-.406-.923-.375-.13.011-.342.204-.73.263-.612.091-1.143-.076-1.582.097-.718.283-.915.516-1.602.93-.688.413-.562.812-1.102 1.485-.277.345-.473.892-1.244 1.288-.626.32-.338.655-1.498 1.459-1.16.803-2.096.56-2.28.946-.235.497-.72.458-1.37.789-.497.253-.94.578-1.84.802-.9.223-1.015.375-1.657.628-.268.105-.735.584-1.22.673-.95.175-1.179.501-1.538.624-.616.21-1.038.049-1.62.147-.583.099-1.042.032-2.205.453-.545.197-1.263.256-1.892.363-.713.122-1.31.283-1.363.332zm1.188 1.008c0 .26-.278.505.136.774.414.27.903.127 1.107.127.118 0 1.231-.098 2.118-.302.663-.152 1.112-.363 1.81-.296.7.068.679.397 1.276.445.597.049 1.338-.388 1.543-.388.205 0 1.208-.122 1.648-.073.439.049.887.278 1.024.261.068-.008.803-.288 1.633-.402.844-.116 1.785-.066 2.206-.162.836-.19 1.294-.553 1.536-.483.242.07 1.455.106 2.033-.247.579-.353 1.036-.46 1.763-.515.728-.055 1.666-.321 2.33-.51.664-.19 1.421-.512 2.135-.688.713-.175 1.35-.13 2.174-.345.825-.215 1.516-.49 2.274-1.013.757-.522 1.5-1.593 2.111-1.74.61-.148 2.91-1.558 3.742-2.176.831-.619 1.255-.895 1.245-1.206-.011-.31-.511-1.655-.745-1.886-.157-.155-.795-.52-1.069-.714-.273-.193-.218-.442-.494-.354-.276.087-.8.419-1.382.821-.582.403-1.46.725-1.566 1.184-.049.213-.513.318-.934.658-.422.34-.76.89-1.275 1.03-.515.14-1.031.29-1.632.79-.6.498-.862.85-1.293 1.002-.431.152-3.077-.105-3.402.22-.324.324-.755.688-1.317.775-.563.086-1.825.592-2.388.822-.562.229-1 .758-1.737 1.05-.737.292-1.818.365-2.58.562-.764.197-1.138.376-2.002.59-.864.214-2.3.372-3.28.633-.979.26-2.323.857-2.595.888-.273.03-2.224.342-2.938.461-.714.12-1.264.222-1.35.24-.043.008-.523.108-.98.102-.445-.007-.885-.063-.885.065zm15.989.861c.143.073 1.49.2 2.21.181.72-.018 1.53-.298 1.741-.318.21-.02 2.643-.38 2.797-.448.153-.068.48-.495 1.093-.632.612-.137 2.317.271 2.575.215.258-.056 1.023-.483 1.81-.766.346-.124 1.016-.168 1.552-.342.687-.223.961-.368 1.287-.576.326-.207 1.41-.753 2.142-.915.732-.163 1.236.009 2.17-.073.934-.082 2.562-.155 3.42-.485.857-.33 1.17-.855 1.709-1.152.538-.297 1.252-.536 1.49-.655.24-.118 1.019-.616 1.65-.92.296-.143.517-.506.912-.665.448-.181 1.059-.158 1.15-.33.169-.324-.213-.458-.336-.713-.123-.255-.226-.646-.44-.739-.215-.092-.206.023-.334-.055-.128-.078.006-.208-.15-.454-.158-.247-.679-.82-.891-.877-.213-.058-.615-.112-1.01-.17-.394-.058-.468-.404-.723-.433-.256-.03-.337-.283-.562-.484-.12-.107-.376-.135-.607-.194-.204-.053-.378-.144-.572-.14-.273.006-.44.152-.69.262-.128.057-.297.009-.596.225-.3.216-.805 1.088-1.188 1.143-.285.059-.477.29-.674.472-.235.218-.407.328-.401.514.007.246-.657.359-.723.528-.066.17-.478.276-.664.538-.186.262-.148.587-.505.853-.356.265-1.12.079-1.534.274-.413.195-.69 1.041-1.275 1.248-.585.207-.56.504-.874.659-.315.155-.447.16-.865.382-.419.221-.738.705-1.377 1.072-.64.367-1.394.727-2.083.917-.688.19-1.337.176-2.029.338-.692.162-1.316.393-2.113.64-.798.248-1.811.522-2.531.7-.72.179-1.34.385-2.13.552-.789.166-1.232.179-1.885.33-.653.152-.09.42.054.493z" />
  <path style="filter: invert(.5);"
    d="M12.458 31.077c-.023-.502.482-.381.803-.17.322.21.967.486.367.956s-1.146-.283-1.17-.786zM9.722 41.11c-.232-.671.597-1.258.917-.57.32.687-.684 1.242-.917.57zm3.94-1.358c.528.098.13 1.124-.314.878-.443-.245-.212-.975.315-.878zm2.062-.472c.275.198.334 1.198-.255 1.26-.589.063-.935-.844-.577-1.201.358-.358.557-.258.832-.06zm-6.147-.098c.786-.227.193 1.138-.242.86-.435-.28-.544-.632.242-.86zm2.4-.436c.247.363.926.672.25 1.099-.675.427-1.501-.183-1.145-.757.356-.574.649-.705.896-.342zm2.68-.23c-.152.6-.626.77-1.188.642-.562-.128-1.143-.985-.461-1.321.681-.337 1.8.078 1.649.679zm-4.583-.946c.52.391-.222 1.265-.593.64-.37-.626.073-1.03.593-.64zm6.11-.994c.816-.012.308.496.718.981.41.486-1.103 1.136-1.416.486-.314-.65-.117-1.454.698-1.467zm-3.091-.194c.78.403.351 1.163-.388 1.006-.74-.157-.392-1.409.388-1.006zm-1.464.791c-.37.892-1.72-.191-1.38-.734.342-.543.758-.722.96-.289.204.433.79.13.42 1.023zm3.622-1.325c.512.3-.728 1.096-.691.619.036-.477.179-.918.69-.619zm1.964-.254c.458.34.473.203.322.693-.151.49-.33.17-.819.144-.489-.027.038-1.178.497-.837zm-3.031.4c-.371.388-1.203.524-1.108-.372.094-.897 1.31-.213 1.108.372m-2.446-.925c.336.497-1.402.466-.896.108.506-.358.56-.606.896-.108zm6.095-.906c.577.364-.351 1.143-.55.594-.199-.549-.026-.957.55-.594zm-5.854.519c-.681-.573.144-1.209.58-1.104.438.104.215 1.696-.58 1.104zm-1.299-1.234c.878.027.234 1.58-.267.982-.5-.598-.1-.677.267-.982m4.761.207c.629.217.923-.221 1.15.296.225.517-.709 1.502-1.375.914-.666-.587-.403-1.426.225-1.21zm-1.427-1.08c.74.049.808 1.238-.108 1.234-.915-.004-.632-1.282.108-1.234zm4.204.872c-.627.21-1.277-1.2-.469-1.05.808.15 1.096.838.469 1.05zm-5.672-.619c-.371.848-1.092-.553-.75-.644.341-.09 1.03-.044.75.644zm3.975-.707c.361.324-.488 1.083-1.051.834-.564-.249-.29-.831-.117-.898.173-.066.807-.26 1.168.064zm3.713.168c-.33.408-.982.138-.788-.493.194-.631 1.119.085.788.493zm-4.086-.842c-.541-.096.411-1.121.449-.505.037.617.093.601-.449.505zm2.34-.182c.042.954-1.849-.342-1.308-.952.54-.61 1.063-.376.99.08-.072.457.276-.081.318.872zm2.735-.434c-.269.367-.744-.705-.072-.996.673-.29.341.628.072.996zm-6.244.085c-.994.2-1.333-1.118-.678-1.237.655-.119 1.665.995.678 1.237zm4.358-1.287c.223-.74.813-.631.919.066.106.697-1.143.675-.92-.066zm3.637-.922c.617.042-.283 1.312-.492.617-.209-.696-.125-.658.492-.617zm-1.298-.024c.17.199-.83.938-.722.359.305-.902.553-.557.722-.359zm-3.54-.157c.817.133-.302 1.58-.561 1.051-.26-.53-.255-1.185.561-1.052zm-1.2-.049c.292.58-.229 1.2-.752.69-.523-.508.448-1.28.752-.69m-1.527-.182c.486.236-.475 1.384-.575.77-.1-.614.088-1.005.575-.77zm5.261-.8c.574.204.391 1.23-.339 1.03-.73-.199-.234-1.234.34-1.03zm2.524.756c-.798.43-1.002-1.236-.3-1.224.701.012 1.099.795.3 1.224zm-4.051-.829c.39.264-.59 1.41-1.075.808-.484-.601.771-1.116 1.075-.808.303.308-.39-.264 0 0zm-2.05-1.055c.648-.08.405 1.372-.157.922-.561-.45-.49-.84.158-.922zm7.906.061c.284.495-.274 1.146-.65.59-.375-.556.365-1.085.65-.59zm-2.389-.412c.092.237-.67 1.042-.752.53-.084-.511.093-.824.326-.713.234.111.334-.055.426.183zm-2.255-.121c.193-.036.807.015.554.574-.253.56-1.404.635-1.341.263.063-.371.594-.802.787-.837zm-1.491-.582c.625.137-.652 1.067-.68.551-.027-.515.055-.689.68-.551zm7.679.408c.315.08.288 1.054-.272.783-.56-.27-.043-.864.272-.783zm-5.882-.26c-.415-.556.183-.824.6-.727.417.096-.157 1.256-.6.728zm2.288-1.24c.486.289-.281 1.103-.448.62-.166-.485-.037-.908.448-.62z" />
  <path style="filter: invert(.4);"
    d="M51.809 42.391c.65.284 1.433-.696 2.012-.69.579.004.25.909.76 1.107.642.25.803-.28 1.24-.315.91-.072.76.988 1.894.79.61-.106.826-.158.78-.8-.042-.598.038-1.551-.067-2.14-.114-.64-.416-1.41-.51-2.05-.156-1.073-.505-2.447-.907-3.468-.75-1.905-1.282-2.912-2.305-4.68-.63-1.089-1.426-2.565-2.316-3.454-1.387-1.386-1.806-2.063-3.4-3.19-1.006-.712-2.94-2.178-4.177-1.988-.557.086.599.573.907.775.685.45 1.583.775 2.185 1.36.59.571-.188.597-.78.187-.918-.633-1.958-1.148-3.036-1.566-1.079-.417-3.034-1.102-4.234-1.326-2.07-.385-3.204-.52-5.3-.67-1.507-.109-3.017-.026-4.52.182-.911.126-1.783.204-2.438.485-.655.282-1.38.291-1.256.937.074.38.985.09 1.359.092 1.532.008 2.928-.243 4.252-.055 1.324.188 3.006.035 3.84.799.536.49-.85-.02-1.212-.036-1.02-.045-2.33-.17-3.355-.165-.624.004-.568.692.058.784.756.11 1.466.089 2.358.159.892.07 1.965.235 2.723.481 1.076.35 2.626.866 3.587 1.517 1.137.77 1.692.846 2.742 1.723 1.27 1.062 2.447 2.393 3.514 3.649.78.918 1.402 2.395 2.054 3.642.438.836.763 1.825 1.122 2.735.287.728.536 1.444.587 2.235.065 1.025-.024 1.557.236 2.65.26 1.091.656-.11 1.603.304z" />
  <path style="filter: invert(.2);"
    d="M51.887 30.82a.35.35 0 00-.09.018c-.276.088-.8.42-1.381.822-.582.403-1.46.723-1.566 1.182-.05.213-.514.318-.936.658-.033.027-.062.06-.094.09.147.295.295.595.442.877.42.803.737 1.745 1.08 2.625.812-.33 2.763-1.532 3.517-2.094.832-.619 1.257-.894 1.246-1.205-.01-.311-.511-1.655-.746-1.887-.156-.154-.794-.522-1.068-.715-.24-.168-.226-.38-.404-.37zm4.29 2.076c-.11.1-.218.172-.318.186-.284.059-.476.29-.673.473-.236.217-.408.328-.403.513.008.246-.657.358-.722.528-.066.169-.478.277-.665.539-.186.262-.147.586-.503.851-.357.266-1.122.08-1.536.276-.413.195-.69 1.04-1.275 1.248a1.2 1.2 0 00-.478.287c.185.53.328 1.065.365 1.64.027.43.03.77.04 1.104.454-.218 1.007-.453 1.448-.55.732-.164 1.236.009 2.17-.073.934-.082 2.562-.155 3.42-.484.436-.168.73-.387.986-.6a5.3 5.3 0 01-.113-.541c-.156-1.073-.506-2.448-.908-3.469a30.38 30.38 0 00-.834-1.928z" />
</svg>